<svg id="Layer_1" data-name="Layer 1" xmlns="http://www.w3.org/2000/svg" viewBox="0 0 60 54.16"><defs><style>.cls-1{fill:#fff;}</style></defs><path class="cls-1" d="M21.4,33.75A6.59,6.59,0,1,1,28,27.16,6.6,6.6,0,0,1,21.4,33.75Zm0-10.28a3.69,3.69,0,1,0,3.69,3.69A3.69,3.69,0,0,0,21.4,23.47Z"/><path class="cls-1" d="M38.22,33.75a6.59,6.59,0,1,1,6.59-6.59A6.6,6.6,0,0,1,38.22,33.75Zm0-10.28a3.69,3.69,0,1,0,3.68,3.69A3.69,3.69,0,0,0,38.22,23.47Z"/><circle class="cls-1" cx="29.81" cy="5.64" r="1.36"/><path class="cls-1" d="M57.33,30.55h-.51V27.48a2.68,2.68,0,0,0-2.67-2.67h-3v-2.6A9.13,9.13,0,0,0,42,13.09H32.48V10.72a5.74,5.74,0,1,0-5.34,0v2.37H17.61a9.13,9.13,0,0,0-9.12,9.12v2.6h-3A2.68,2.68,0,0,0,2.8,27.48v3.07H2.67a2.67,2.67,0,0,0,0,5.34H2.8v2.8a2.68,2.68,0,0,0,2.67,2.67h3v3.78a9.12,9.12,0,0,0,9.12,9.11H42a9.12,9.12,0,0,0,9.11-9.11V41.36h3a2.68,2.68,0,0,0,2.67-2.67v-2.8h.51a2.67,2.67,0,1,0,0-5.34ZM5.47,39.42a.73.73,0,0,1-.73-.73V34H2.67a.74.74,0,0,1,0-1.47H4.74v-5a.73.73,0,0,1,.73-.73h3V39.42ZM49.2,45.14A7.19,7.19,0,0,1,42,52.32H17.61a7.19,7.19,0,0,1-7.18-7.18V40.39h0V25.78h0V22.21A7.19,7.19,0,0,1,17.61,15H29.07V9.43l-.62-.24a3.8,3.8,0,1,1,2.72,0l-.62.24V15H42a7.19,7.19,0,0,1,7.18,7.18V45.14ZM57.33,34H54.89v4.74a.74.74,0,0,1-.74.73h-3V26.75h3a.74.74,0,0,1,.74.73v5h2.44a.74.74,0,0,1,0,1.47Z"/><path class="cls-1" d="M29.81,37.62a1.45,1.45,0,0,1-1.45-1.45v-2.9a1.45,1.45,0,1,1,2.9,0v2.9A1.45,1.45,0,0,1,29.81,37.62Z"/><path class="cls-1" d="M34,43.88h-8.4a1.94,1.94,0,1,1,0-3.87H34a1.94,1.94,0,1,1,0,3.87Z"/><path class="cls-1" d="M29.81,49.14a1.33,1.33,0,1,1,1.33-1.33A1.34,1.34,0,0,1,29.81,49.14Z"/></svg>