<svg id="Layer_1" data-name="Layer 1" xmlns="http://www.w3.org/2000/svg" viewBox="0 0 288.95 287.5"><defs><style>.cls-1{fill:#fff;}</style></defs><path class="cls-1" d="M287.9,139.43a5.82,5.82,0,0,0-4.78-2.49H241V0H48.23V9.47H33.59V21.81H19V45.65H6.36A6.36,6.36,0,0,0,0,52V281.14a6.36,6.36,0,0,0,6.36,6.36v-.08a5.29,5.29,0,0,0,.9.08h224.9a5.85,5.85,0,0,0,5.47-3.82l51-138.91A5.84,5.84,0,0,0,287.9,139.43ZM58.22,136.94a5.86,5.86,0,0,0-5,2.85V114.43L98.87,70.15l46.85,45.45,45.91-44.54,44.36,43v22.85ZM236,5V107.12l-44.36-43-45.91,44.54L98.87,63.18,53.23,107.46V5ZM48.23,14.47V152.59h.18l-9.82,26.78V14.47ZM33.59,26.81v166.1h0L24,219.28V26.81ZM6.36,50.65H19V232.91L5,270.93V52A1.36,1.36,0,0,1,6.36,50.65Zm277.54,92.4L232.93,282a.81.81,0,0,1-.77.54H7.26a.81.81,0,0,1-.77-1.1l17.43-47.54h0v-.07l33.5-91.31a.83.83,0,0,1,.77-.54h224.9a.81.81,0,0,1,.68.35A.85.85,0,0,1,283.9,143.05Z"/><path class="cls-1" d="M156.67,76.49a19.73,19.73,0,1,0-19.73-19.73A19.75,19.75,0,0,0,156.67,76.49Zm0-34.45a14.73,14.73,0,1,1-14.73,14.72A14.74,14.74,0,0,1,156.67,42Z"/></svg>