<svg id="Layer_1" data-name="Layer 1" xmlns="http://www.w3.org/2000/svg" viewBox="0 0 288.95 287.5"><defs><style>.cls-1{fill:#fff;}</style></defs><path class="cls-1" d="M144.25,287.5C64.71,287.5,0,223,0,143.75S64.71,0,144.25,0,288.5,64.49,288.5,143.75,223.79,287.5,144.25,287.5ZM144.25,5C67.45,5,5,67.22,5,143.75s62.48,138.8,139.28,138.8,139.28-62.27,139.28-138.8S221.05,5,144.25,5Z"/><path class="cls-1" d="M86.73,143.91a41.27,41.27,0,1,1,41.41-41.27A41.39,41.39,0,0,1,86.73,143.91Zm0-77.58a36.32,36.32,0,1,0,36.44,36.31A36.42,36.42,0,0,0,86.73,66.33Z"/><path class="cls-1" d="M209.9,143.91a41.39,41.39,0,0,1-41.41-41.27h5a36.44,36.44,0,0,0,72.88,0h5A41.39,41.39,0,0,1,209.9,143.91Z"/><path class="cls-1" d="M47.11,97C46,96.7,35.74,93.64,31.87,88.5l4-3c2.44,3.24,10.14,6,12.64,6.76Z"/><path class="cls-1" d="M53.25,84.36c-.38-.09-9.4-2.19-13.39-8.81L44.12,73c2.89,4.79,10.16,6.51,10.24,6.53Z"/><path class="cls-1" d="M247.11,142c-8.49,0-13.08-9.15-13.28-9.58l4.47-2.17-2.24,1.09,2.23-1.09c0,.08,3.92,7.78,10.1,6.68l.87,4.88A12.43,12.43,0,0,1,247.11,142Z"/><path class="cls-1" d="M252.7,129a14.51,14.51,0,0,1-11.08-5.52l4-2.94a9.4,9.4,0,0,0,8.62,3.38l.82,4.88A13.9,13.9,0,0,1,252.7,129Z"/><ellipse class="cls-1" cx="86.73" cy="110.75" rx="4.07" ry="4.05"/><ellipse class="cls-1" cx="144.25" cy="238.7" rx="16.27" ry="5.21"/></svg>